<svg width="201" height="226" version="1.1" viewBox="0 0 201 226" xmlns="http://www.w3.org/2000/svg">
 <path d="m0.66 215c-0.36-6.2-0.65-16-0.65-21l-0.0045-9.9 5.1-4.9c6.8-6.6 14-9.8 35-15 9.5-2.5 20-5.8 24-7.4 5.8-2.6 6.4-3.2 7.1-6.5 1-5.5-0.23-11-4.7-20-2.2-4.5-4.3-10-4.6-12-0.48-3.6-1-4.4-3.9-5.6-6.9-2.9-9.9-13-6.8-23 1.5-4.7 1.6-6.3 0.58-11-1.8-7.7-1.4-12 1.8-21 2.1-5.9 3-10 3-15l0.013-6.3 3.4 0.64c2.7 0.5 5.1-0.13 11-2.9 9.6-4.3 14-5.4 23-6.3 11-1 20 1 24 5.3 3.2 3.2 3.8 3.4 7.7 2.8 4.1-0.61 4.5-0.42 9.3 4.1 9.7 9.1 14 22 11 35-1.3 6-1.3 7.1 0.36 12 3.4 10 1.9 18-4.9 24-3.5 3.3-4 4.4-7.5 19-4.3 17-4.1 19 1.7 23 5.9 4.5 15 7.6 31 10 15 2.6 23 4.9 31 9.1l4.2 2.5v49l-26 0.66c-14 0.36-59 0.66-100 0.66h-74z"/>
</svg>
