<svg width="206" height="64" fill="rgb(49, 67, 60)" xmlns="http://www.w3.org/2000/svg"><path d="M57.882 25.888c1.422 2.144 4.676 5.44 9.826 5.44 3.381 0 5.687-1.44 5.687-4.16 0-6.688-15.987-3.52-15.987-14.784 0-5.6 4.645-9.504 11.248-9.504 4.265 0 6.761 2.048 7.994 2.048.632 0 .853-.832 1.2-1.056v8.992c-1.485-2.464-5.15-5.44-9.067-5.44-2.844 0-5.056 1.632-5.056 4.416 0 6.176 15.988 3.424 15.988 14.24 0 5.92-4.708 9.76-11.596 9.76-4.392 0-8.183-2.208-9.068-2.208-.505 0-.758.736-1.169.992v-8.736zM83.917 14.88c0-1.696-.727-2.08-1.296-2.688h6.793v14.496c0 2.912.664 4.608 2.717 4.608 4.203 0 5.056-5.632 5.056-9.632V14.88c0-1.696-.79-2.144-1.359-2.688h6.856v15.424c0 4.448.253 5.696 1.106 7.616h-5.53c-.6-2.048-.6-2.656-.726-4.864h-.095c-1.358 2.528-3.096 5.504-7.361 5.504-4.898 0-6.193-4.256-6.193-8.864V14.88h.032zm25.528 1.216h-2.717v-3.904h2.717V9.984c0-4.352 3.255-7.136 7.394-7.136 1.959 0 2.906.384 4.613 1.216v4.768c-.727-.64-1.138-2.08-3.255-2.08-1.548 0-3.254 1.44-3.254 3.392v2.048h5.877v3.904h-5.877V32.48c0 1.728.758 2.176 1.359 2.72h-8.215c.537-.576 1.358-.992 1.358-2.72V16.096zm15.166 0h-2.685v-3.904h2.685V9.984c0-4.352 3.254-7.136 7.425-7.136 1.927 0 2.907.384 4.613 1.216v4.768c-.727-.64-1.138-2.08-3.254-2.08-1.58 0-3.255 1.44-3.255 3.392v2.048h5.877v3.904h-5.877V32.48c0 1.728.759 2.176 1.359 2.72h-8.215c.537-.576 1.359-.992 1.359-2.72V16.096h-.032zm23.349 15.648c3.286 0 5.719-3.648 5.719-8.032 0-4-2.591-8.032-5.656-8.032-3.349 0-5.719 4.032-5.719 8.128-.031 4.288 2.591 7.936 5.656 7.936zm-11.185-8.064c0-6.752 4.645-12.128 11.248-12.128 6.382 0 11.121 5.184 11.121 12.16 0 6.784-4.739 12.16-11.216 12.16-6.508 0-11.153-5.376-11.153-12.192zm26.824-17.472c0-1.696-.789-2.112-1.358-2.688h6.856v28.992c0 1.728.758 2.176 1.359 2.752h-8.215c.537-.576 1.358-.992 1.358-2.752V6.208zm16.777 26.272c0 1.728.759 2.176 1.359 2.72h-8.215c.537-.576 1.359-.992 1.359-2.72V6.176c0-1.696-.822-2.112-1.359-2.688h6.856v18.56l5.498-6.656c.537-.64 1.39-1.472 1.39-2.08 0-.8-.379-.736-.474-1.12h7.741c-.885.608-1.706 1.184-2.78 2.432l-4.392 5.216 5.971 12.064c1.138 2.336 1.707 2.656 2.623 3.296h-7.014l-5.403-11.392-3.128 3.68v4.992h-.032zM68.403 57.024c-.126-.128-.19-.256-.41-.256-.57 0-1.58 1.216-3.981 1.216-3.034 0-6.477-2.592-6.477-7.808 0-4.96 3.412-7.808 6.571-7.808 1.96 0 2.654.768 3.255.768.347 0 .41-.256.568-.384v3.872c-.505-.704-1.295-2.112-3.19-2.112-2.75 0-4.234 2.624-4.234 5.856 0 2.912 1.485 5.44 4.075 5.44 1.896 0 3.381-1.888 3.823-2.336v3.552zM75.102 56c1.548 0 2.717-1.728 2.717-3.808 0-1.888-1.233-3.808-2.686-3.808-1.58 0-2.717 1.92-2.717 3.84 0 2.048 1.232 3.776 2.686 3.776zm-5.277-3.808c0-3.2 2.212-5.728 5.308-5.728 3.033 0 5.276 2.432 5.276 5.76 0 3.2-2.243 5.76-5.307 5.76-3.097-.032-5.277-2.592-5.277-5.792zm12.575-4.16c0-.8-.348-.992-.632-1.28h3.223v6.88c0 1.376.316 2.176 1.264 2.176 1.99 0 2.37-2.656 2.37-4.544v-3.2c0-.8-.38-.992-.633-1.28h3.255v7.296c0 2.112.126 2.688.505 3.616h-2.59c-.285-.96-.285-1.248-.348-2.304h-.032c-.632 1.184-1.453 2.592-3.475 2.592-2.338 0-2.939-2.016-2.939-4.192v-5.76h.032zm11.69 0c0-.8-.347-.992-.632-1.28h3.223v2.176h.032c.568-.992 1.327-2.496 3.507-2.496s2.812 1.472 2.812 3.872v6.016c0 .832.347 1.024.632 1.28h-3.887c.253-.256.664-.48.664-1.28v-5.728c0-1.184-.221-2.048-1.264-2.048-1.295 0-2.022 1.344-2.496 2.208v5.536c0 .832.348 1.024.632 1.28h-3.886c.252-.256.632-.48.632-1.28v-8.256h.031zm11.912.576h-1.327v-1.856h1.327v-2.336l2.622-.768v3.136h3.286v1.856h-3.286v5.28c0 1.024.126 2.112 1.327 2.112.979 0 1.516-.672 2.022-1.376v2.496c-.916.48-1.611.832-2.528.832-2.654 0-3.443-1.088-3.443-4.256v-5.12zm6.824 10.272c.411.352.79 1.056 1.675 1.056 1.516 0 1.769-1.28 1.99-2.144l-3.475-9.216c-.411-1.12-.632-1.376-1.043-1.792h3.823c-.158.192-.379.32-.379.544 0 .352.158.736.284 1.056l2.054 6.048h.032l2.116-6.208c.127-.352.19-.608.19-.96 0-.32-.19-.32-.379-.544h3.065c-.38.32-.696.768-.98 1.504l-3.223 9.408c-.821 2.56-1.674 4.128-3.728 4.128-.884 0-1.358-.192-2.054-.608V58.88h.032zm27.33-1.856c-.127-.128-.19-.256-.411-.256-.569 0-1.58 1.216-3.981 1.216-3.033 0-6.477-2.592-6.477-7.808 0-4.96 3.412-7.808 6.572-7.808 1.959 0 2.654.768 3.254.768.348 0 .411-.256.569-.384v3.872c-.537-.704-1.295-2.112-3.191-2.112-2.749 0-4.234 2.624-4.234 5.856 0 2.912 1.485 5.44 4.076 5.44 1.896 0 3.381-1.888 3.823-2.336v3.552zM146.854 56c1.548 0 2.686-1.728 2.686-3.808 0-1.888-1.233-3.808-2.686-3.808-1.58 0-2.717 1.92-2.717 3.84.031 2.048 1.264 3.776 2.717 3.776zm-5.308-3.808c0-3.2 2.212-5.728 5.34-5.728 3.033 0 5.276 2.432 5.276 5.76 0 3.2-2.243 5.76-5.308 5.76-3.096-.032-5.308-2.592-5.308-5.792zm12.575-4.16c0-.8-.348-.992-.632-1.28h3.223v6.88c0 1.376.316 2.176 1.295 2.176 1.991 0 2.37-2.656 2.37-4.544v-3.2c0-.8-.379-.992-.632-1.28h3.254v7.296c0 2.112.126 2.688.506 3.616h-2.591c-.285-.96-.285-1.248-.348-2.304h-.031c-.632 1.184-1.454 2.592-3.476 2.592-2.306 0-2.938-2.016-2.938-4.192v-5.76zm11.69 0c0-.8-.347-.992-.632-1.28h3.254v2.176h.032c.569-.992 1.327-2.496 3.507-2.496s2.812 1.472 2.812 3.872v6.016c0 .832.348 1.024.632 1.28h-3.886c.253-.256.632-.48.632-1.28v-5.728c0-1.184-.221-2.048-1.264-2.048-1.295 0-2.022 1.344-2.496 2.208v5.536c0 .832.347 1.024.632 1.28h-3.886c.252-.256.631-.48.631-1.28v-8.256h.032zm19.115 8.832c-.821.608-1.611 1.088-3.001 1.088-3.381 0-5.087-3.008-5.087-5.792 0-3.136 2.117-5.728 5.055-5.728 1.106 0 1.769.576 2.306.576.411 0 .411-.32.569-.352v3.296c-.569-.736-1.169-1.568-2.496-1.568-1.896 0-2.812 1.888-2.812 3.776 0 2.08 1.169 3.84 3.002 3.84 1.295 0 2.022-.928 2.496-1.632v2.496h-.032zm1.517-13.088c0-.64.726-1.344 1.674-1.344.885 0 1.675.672 1.675 1.344 0 .8-.79 1.408-1.675 1.408-.948 0-1.674-.608-1.674-1.408zm.474 4.256c0-.768-.38-.992-.632-1.28h3.254v9.6c0 .832.379 1.024.632 1.28h-3.886c.252-.256.632-.48.632-1.28v-8.32zm5.308-4.128c0-.8-.38-.992-.632-1.28h3.254v13.728c0 .832.347 1.024.632 1.28h-3.886c.252-.256.632-.48.632-1.28V43.904zm-170.519-3.36h.537l-.063-.832-.632-.032.158.864zm-2.812.448l.063.384.221.384.348.096.379-.512-.348-.512-.663.16z" fill="rgb(49, 67, 60)"/><path d="M39.747 36.864s.031 4.8-4.36 10.688c-.285-.224-2.086-1.536-4.108-1.28l5.624-6.336-5.94 3.04 4.992-10.688-7.456 7.616 2.053-11.552-5.15 9.984L23.38 23.04l-1.832 15.424-4.803-9.984 1.864 11.776-.094-.16-7.962-7.712 5.466 10.624-6.509-3.104 6.193 6.4c-2.054-.064-3.823 1.024-4.424 1.408-1.958-2.72-3.633-5.824-4.328-10.08 0-12.128-.063-24.352-.063-24.352h32.859v23.584zM30.52 44.32c.884-.544 3.665-2.144 3.665-2.144l-3.16 3.232c-.126-.288-.284-.672-.505-1.088zm-14.123 1.408c-.537-.416-3.855-3.52-3.855-3.52l4.455 2.112a9.382 9.382 0 00-.6 1.408zm1.074-2.24l-4.897-8.352 6.256 6.72a7.157 7.157 0 00-1.359 1.632zM20 41.024l-2.054-8.704 3.507 8.064a6.688 6.688 0 00-1.453.64zm8.34.608l5.751-6.592-4.265 8.16a7.706 7.706 0 00-1.485-1.568zm-2.843-1.344c.79-1.504 3.76-8.096 3.76-8.096l-1.896 8.8a5.404 5.404 0 00-1.864-.704zm-2.97-.128l.916-12.512 1.138 12.48c-.284-.032-.6-.032-.885-.032-.442-.032-.821 0-1.169.064zm1.264.864c5.466 0 6.477 5.376 6.477 5.376l.032.096c-2.433.96-2.623.672-3.792-.224-1.99-2.048-4.075-2.016-5.624-.16-1.358 1.632-2.559 1.024-3.728.448l-.063-.032c.253-.928 1.8-5.504 6.698-5.504zm9.92 8.608c-1.705-1.44-2.906-1.152-4.296-.736-2.18.896-3.16.224-3.633-.32-1.296-1.568-2.56-1.728-3.95-.32-1.39 1.408-1.706 1.28-3.349.864-3.033-1.344-4.897.256-5.434.832-.348-.384-.695-.8-1.043-1.216 1.927-1.344 3.476-1.408 4.676-1.12 2.686 1.12 3.76.576 4.676-.16 1.99-2.304 3.318-.96 4.14-.352 2.558 1.952 3.38.992 4.328.576 2.148-.864 4.644.416 4.992.608-.316.448-.695.896-1.106 1.344zM31.88 51.52c-1.042-.928-2.97-.864-4.202-.256-1.295.608-2.117-.16-2.37-.448-1.516-1.632-2.148-.896-2.906-.352-1.39 1.344-2.338.992-2.939.8-3.096-.928-4.202.192-4.486.608-.348-.32-.695-.64-1.043-.992.158-.128.443-.352.664-.48.916-.736 2.148-.672 3.286-.384 3.033.96 3.475.288 4.076-.288 1.548-1.504 1.927-1.216 3.222 0 1.264 1.248 2.939.896 3.539.608.6-.288 1.77-.512 2.401-.576.443-.064 1.359.48 1.833.8-.348.256-.695.608-1.075.96zm-2.022 1.792c-1.105-.672-1.99-.224-2.338-.096-1.137.64-1.864.256-2.4-.288-.538-.576-1.833-1.184-2.97-.096-1.138 1.088-1.644.704-2.18.448-1.58-.64-2.655-.032-3.003.224a27.143 27.143 0 01-1.105-.896c1.264-.896 2.37-.608 3.349-.416 1.832.8 2.685.032 3.223-.384 1.421-1.28 1.453-.704 2.622.128 1.2.832 2.717.416 3.096.256 1.011-.608 2.56-.064 2.939.096-.411.32-.822.672-1.233 1.024zm-3.033 2.272c-.19-.032-.442 0-.727.032-.379.032-.537.128-1.61-.448-1.075-.544-1.391-.16-2.054.128-.664.288-.885.352-1.454.256-.316-.064-.632 0-.853.064a33.606 33.606 0 01-2.117-1.376c.506-.256 1.106-.128 1.517.096 1.453.736 2.685 0 2.938-.288 1.011-1.28 1.801-.352 2.054-.064 1.232 1.184 2.622.64 3.128.352.284-.16.632-.192.821-.224l.348.032c-.6.448-1.296.928-1.99 1.44zm-3.128 1.952c-.505-.256-1.074-.544-1.674-.864.347-.064.347-.192 1.169-.576.821-.352 1.706.416 1.959.544l.031.032c-.505.256-.98.576-1.485.864zM21.485 3.04L6.35 12.736v24.928c2.116 14.24 17.282 20.544 17.282 20.544 1.043-.256 11.311-8.032 11.311-8.032l15.292-11.872V3.04h-28.75zM10.869 15.808l.884 1.152-.79-.064-.853-1.088h.759zm.726-.928l.98 1.152-.19.544-.916-1.184.126-.512zm2.244 5.376s-.664-1.76.695-2.112c0-.16-.474-1.408.948-1.376 1.421.032.884 1.344.884 1.344s1.39.192.695 2.144c.38.032 1.359 0 1.359 0s-.695-1.888.537-1.696c.505.064.853.192 1.738-.384-.443.576-1.043 1.248-1.77 3.488h-6.919s-.79-2.56-1.832-3.488c.252.128.979.512 1.232.48.284-.032.442-.064.6-.064.158 0 1.043-.288.442 1.696 1.011-.032 1.39-.032 1.39-.032zm5.434-5.408l.158.512-.916 1.184-.19-.512.948-1.184zm.821.96l.664.032-.79 1.056-.758.032.884-1.12zm-9.225 1.568l1.327.096.41.512c-.505.064-1.01.096-1.074.064-1.295-.608-2.085-.416-2.243-.352 2.306 2.752 2.243 4.288 2.243 4.288h2.907l-1.2 1.568-.032-.032-.443-.864-.916 3.456 2.938-1.824L13.713 24l1.548-1.984h.316l1.549 2.048-1.106.224 3.128 1.888-1.138-3.52-.284.896-1.2-1.536h2.811c.316-1.824 2.054-4 2.18-4.16.127-.16.127-.128-.031-.224-.885-.128-2.244.48-2.244.48l-.916-.096.38-.48 1.232-.16 1.8-2.112-1.2-.128.379-.48-.664-.48-.347.544-.348-1.088-1.8 2.336.315 1.184-.568.768-.348-.032v-.064c0-.864-.758-1.568-1.674-1.568-.917 0-1.675.704-1.675 1.568v.032s-.158.032-.38.064l-.568-.736.316-1.184-1.832-2.336-.348 1.12-.442-.576-.474.448.379.48-1.39.128 1.8 2.112zm17.093-1.568l.884 1.152-.79-.064-.853-1.088h.759zm.726-.928l.948 1.152-.19.544-.916-1.184.158-.512zm2.244 5.376s-.664-1.76.695-2.112c0-.16-.474-1.408.948-1.376 1.421.032.884 1.344.884 1.344s1.39.192.695 2.144c.38.032 1.359 0 1.359 0s-.695-1.888.537-1.696c.506.064.853.192 1.738-.384-.443.576-1.074 1.248-1.77 3.488H29.1s-.79-2.56-1.832-3.488c.252.128.947.512 1.232.48.284-.032.442-.064.6-.064.158 0 1.043-.288.442 1.696 1.011-.032 1.39-.032 1.39-.032zm5.402-5.408l.19.512-.916 1.184-.19-.512.916-1.184zm.853.96l.632.032-.821 1.056-.727.032.916-1.12zm-9.257 1.568l1.295.096.411.512c-.505.064-1.01.096-1.074.064-1.296-.608-2.085-.416-2.243-.352 2.306 2.752 2.243 4.288 2.243 4.288h2.907l-1.2 1.568v-.032l-.443-.864-.916 3.456 2.938-1.824L30.774 24l1.548-1.984h.316l1.548 2.048-1.106.224 3.128 1.888-1.106-3.52-.284.896-1.2-1.536h2.811c.316-1.824 2.054-4 2.18-4.16.127-.16.127-.128-.031-.224-.885-.128-2.244.48-2.244.48l-.916-.096.38-.48 1.231-.16 1.801-2.112-1.2-.128.379-.48-.664-.48-.379.544-.347-1.088-1.801 2.336.316 1.184-.569.768-.347-.032v-.064c0-.864-.759-1.568-1.675-1.568s-1.675.704-1.675 1.568v.032s-.158.032-.379.064l-.569-.736.316-1.184-1.832-2.336-.348 1.12-.442-.576-.474.448.38.48-1.39.128 1.8 2.112z" fill="rgb(49, 67, 60)"/></svg>